<?xml version="1.0" encoding="utf-8"?>

<svg version="1.1" id="Layer_3" xmlns="http://www.w3.org/2000/svg" xmlns:xlink="http://www.w3.org/1999/xlink" x="0px" y="0px"
	viewBox="0 0 30 30" style="enable-background:new 0 0 30 30;" xml:space="preserve">
<style type="text/css">
	.st1{fill:#8A9AA7;}
</style>
<title>icon-bbb</title>
<path class="st1" d="m 16.772735,14.094063 c -0.293235,0 -0.58647,0.07349 -0.806394,0.146998 v -0.587989 c 0,-1.175976 -1.164279,-2.204956 -2.337216,-2.204956 -0.293233,0 -0.448514,0.07349 -0.668439,0.146998 -0.0733,-1.175977 -1.026323,-2.0579595 -2.19926,-2.0579595 -0.287288,0 -0.635106,0.1272471 -0.9596296,0.3874435 V 8.3177988 c 0,-0.436174 -0.351407,-1.0620667 -0.6298493,-1.3483964 C 8.6282961,6.4103512 7.9091101,6.403448 7.5670341,6.4001596 7.0497563,6.3952288 6.6815771,6.5033194 6.1831804,6.8970228 5.6847835,7.2907272 5.4443819,8.0730243 5.4500938,8.7344866 l 0.088681,10.2697144 c 0,0 -0.4532964,-0.647871 -1.026321,-1.469973 -0.5730248,-0.822099 -0.8797039,-1.028977 -1.5394819,-1.102477 -0.5864693,-0.07349 -1.0996297,0.146997 -1.4661732,0.587987 -0.4398519,0.440994 -0.80639524,1.249478 -0.1466173,2.719446 0,0 2.1992598,3.748426 3.8120502,6.320876 C 6.0519361,27.456531 7.7380356,29 9.7906758,29 h 4.1052852 c 2.78573,0 5.051805,-2.278461 5.058299,-5.071399 L 18.972,16.29902 c -0.07329,-1.175979 -1.026323,-2.13146 -2.199262,-2.204957 z m 0.78866,9.908037 c 0,2.05796 -1.612791,3.674926 -3.665435,3.674926 H 9.790675 c -1.4661709,0 -2.785727,-1.249474 -3.4455049,-2.278453 -1.6860993,-2.57245 -3.8120502,-6.247377 -3.8120502,-6.247377 -0.2932345,-0.51449 -0.2932345,-0.95548 -0.1466174,-1.102477 0.073309,-0.07349 0.2199261,-0.146996 0.3665433,-0.146996 0.2199259,0.07349 0.3665434,0.220493 0.5131605,0.44099 l 2.0526423,3.013441 c 0.2199261,0.36749 0.7330869,0.44099 1.0996301,0.220493 0.2199261,-0.146995 0.3686967,-0.367499 0.3665434,-0.661485 L 6.696341,8.8079845 C 6.6629138,8.0357825 7.167265,7.6547763 7.5299281,7.6343777 7.8925912,7.613976 8.3786414,8.1465184 8.3824399,8.5139914 l 0.088681,8.5792466 c 0.07331,0.367494 0.3665428,0.661488 0.7330864,0.587988 0.2932346,0 0.5854934,-0.293995 0.5864677,-0.587988 l 0.017736,-5.351126 c 0.00146,-0.44099 0.366545,-0.808484 0.806394,-0.808484 0.439853,0.0735 0.807858,0.367494 0.806395,0.808484 l -0.01775,5.351126 c 0.0733,0.367494 0.366546,0.661488 0.733088,0.587988 0.293234,0 0.584954,-0.293997 0.586469,-0.587988 l 0.01774,-3.440166 c 0.0025,-0.504151 0.450453,-0.821056 0.890306,-0.821056 0.439852,0 0.870771,0.38007 0.869103,0.821056 l -0.01774,4.689641 c -0.0733,0.367492 0.219925,0.734985 0.586471,0.734985 0.366542,0.07348 0.733086,-0.220493 0.733086,-0.587987 v -0.146998 l 0.01774,-2.043693 c 0.004,-0.440974 0.366543,-0.808485 0.806393,-0.808485 0.439853,0 0.806398,0.367493 0.806398,0.808485 z" opacity="1"/>
<path class="st1" d="M 9.5186154,5.6189707 A 0.85073954,0.89555348 89.999992 0 1 9.3071144,4.2059442 C 13.001929,1.6267114 15.429197,0.66433371 17.243933,1.1016701 a 3.955939,4.1643236 89.999973 0 1 2.608326,2.3956548 c 0.221742,0.4659641 1.424438,0.7097909 4.096466,0.00406 a 28.397686,29.893575 89.999987 0 0 4.029577,-1.4132941 0.85073954,0.89555348 89.999992 0 1 0.734063,1.4669605 29.775885,31.344372 89.999976 0 1 -4.292807,1.5033479 C 21.091,5.9354795 19.039797,5.642717 18.317212,4.1706721 A 2.4985942,2.3735633 0 0 0 16.836403,2.6627995 C 15.632187,2.3731806 13.455126,3.3043755 10.335036,5.5029059 A 0.85073954,0.89555348 89.999992 0 1 9.5186154,5.6189707 Z" opacity="1"/>
</svg>
