<?xml version="1.0" encoding="utf-8"?>

<svg version="1.1" id="Layer_3" xmlns="http://www.w3.org/2000/svg" xmlns:xlink="http://www.w3.org/1999/xlink" x="0px" y="0px"
	 viewBox="0 0 30 30" style="enable-background:new 0 0 30 30;" xml:space="preserve">
<style type="text/css">
	.st1{fill:#8A9AA7;}
</style>
<title>icon-bbb</title>
<path class="st1" d="M3.53968+27.165C3.67684+27.165+3.84146+27.1375+4.00607+27.0828C4.14323+27.0005+4.28041+26.9183+4.36269+26.8085L28.0932+3.10526C28.1757+3.02296+28.258+2.8858+28.3402+2.72119C28.4225+2.58403+28.45+2.41942+28.45+2.28223C28.45+2.14507+28.4225+2.00789+28.3402+1.8433C28.258+1.67869+28.1757+1.5415+28.0932+1.45923C28.011+1.37692+27.874+1.29461+27.7367+1.21231C27.5722+1.15743+27.4349+1.13+27.2977+1.13C27.1607+1.13+26.9959+1.15743+26.8589+1.21231C26.6941+1.29461+26.5571+1.37692+26.4746+1.45923L2.71665+25.1898C2.60692+25.2721+2.52461+25.4093+2.46973+25.5739C2.38743+25.7112+2.36+25.8757+2.36+26.013C2.36+26.342+2.46973+26.6165+2.71665+26.8357C2.93611+27.0553+3.21046+27.165+3.53968+27.165M24.664+2.03534C24.5817+2.06277+24.4444+2.14507+24.2524+2.28223C24.0329+2.41942+23.7039+2.58403+23.2374+2.80349C22.4693+3.16015+21.8383+3.40703+21.3719+3.48934C21.0153+3.57165+20.7409+3.62653+20.494+3.62653C20.4117+3.62653+20.3294+3.59907+20.2746+3.59907C20.0551+3.57165+19.9179+3.48934+19.863+3.37961C19.6161+2.96811+19.2595+2.58403+18.7931+2.28223C18.3267+1.98046+17.8329+1.761+17.3391+1.67869C17.2842+1.67869+17.2019+1.67869+17.1471+1.67869C16.4063+1.67869+15.5833+1.95303+14.7054+2.52915C13.7452+3.16015+12.593+4.14776+11.2487+5.54691C11.2212+5.57434+11.1938+5.62922+11.1664+5.71152C11.139+5.79383+11.139+5.84868+11.1115+5.87614C11.0841+6.06818+11.1115+6.26021+11.2212+6.4248C11.3036+6.58941+11.4682+6.69914+11.6602+6.7266C11.9071+6.75402+12.1266+6.69914+12.3186+6.5071C14.4585+4.23007+16.0497+3.10526+17.1471+3.10526C17.1745+3.10526+17.2293+3.10526+17.2568+3.10526C17.5037+3.16015+17.778+3.2973+18.0798+3.48934C18.3542+3.70883+18.5462+3.9283+18.6834+4.17522C18.8205+4.42211+18.9851+4.61415+19.2321+4.75133C19.479+4.88849+19.7259+4.9708+20.0276+4.99822C20.2746+5.02568+20.494+5.02568+20.6861+5.02568C20.9056+5.02568+21.0701+5.02568+21.2348+4.9708C21.4817+4.91592+21.7011+4.86106+21.8658+4.83364L24.664+2.03534M3.10073+19.6481L4.55473+22.1172L5.51495+21.157L4.28041+19.072C4.08835+18.7702+4.00607+18.5233+4.00607+18.2764C4.00607+17.9746+4.17065+17.81+4.49988+17.81C4.60961+17.81+4.69192+17.8649+4.77422+17.9472C4.85653+18.0569+4.93883+18.1667+5.02111+18.2764L6.39283+20.2791L8.58756+18.0844L8.56014+10.1559C8.56014+10.0187+8.58756+9.85409+8.64244+9.66205C8.69732+9.49744+8.7796+9.36028+8.86191+9.25055C8.94421+9.16824+9.05395+9.11336+9.16371+9.05848C9.27344+9.00363+9.38317+8.97621+9.46548+8.97621C9.4929+8.97621+9.57521+9.00363+9.68494+9.03106C10.0964+9.2231+10.2885+9.49744+10.2885+9.85409L10.2885+16.3834L11.6328+15.0666L11.6054+12.9816C11.6054+12.7621+11.6876+12.5701+11.8522+12.4055C12.0169+12.2683+12.2089+12.186+12.4284+12.186C12.6479+12.2134+12.8399+12.2957+13.0045+12.4329C13.1417+12.5701+13.224+12.7621+13.224+12.9816L13.224+13.448L14.1567+12.5427C14.1567+12.1311+13.9921+11.7745+13.6629+11.5001C13.3063+11.2258+12.9222+11.0886+12.5107+11.0612C12.4558+11.0886+12.2912+11.1161+12.0443+11.1709C11.7974+11.2532+11.5505+11.4179+11.3584+11.6647L11.3584+10.0187C11.331+9.44259+11.1938+8.92133+10.9469+8.45494C10.6726+8.01599+10.1513+7.79652+9.38317+7.79652C8.75218+7.79652+8.25837+8.04344+7.87429+8.50982C7.49021+9.00363+7.29818+9.52487+7.29818+10.0736L7.3256+18.9074L6.2831+17.426C6.09106+17.1516+5.87157+16.9047+5.62468+16.6578C5.37776+16.4383+5.07599+16.3286+4.71934+16.3286C4.41757+16.3286+4.14323+16.3834+3.89631+16.4657C3.64942+16.548+3.42992+16.7127+3.23789+16.9047C3.10073+17.0418+2.96357+17.2065+2.88126+17.3985C2.7715+17.5905+2.71665+17.8649+2.71665+18.1667C2.71665+18.633+2.85381+19.1269+3.10073+19.6481M6.72206+25.7112L6.94152+26.0677C7.16099+26.4245+7.43533+26.781+7.76456+27.1375C8.09375+27.4943+8.45041+27.7961+8.86191+28.0979C9.24598+28.3721+9.68494+28.5916+10.1513+28.7836C10.6177+28.9484+11.1115+29.0307+11.6328+29.0307L15.7753+29.0307C16.4886+29.0307+17.1471+28.8934+17.7506+28.6467C18.3267+28.3721+18.848+28.0156+19.2869+27.5491C19.6985+27.0828+20.0551+26.5615+20.302+25.9579C20.5489+25.327+20.6586+24.6686+20.6586+23.9553L20.6586+14.3807C20.6586+13.8046+20.5489+13.3382+20.302+13.0365C20.0551+12.7347+19.8905+12.5975+19.8356+12.5975L18.7931+13.64C18.9303+13.6675+19.04+13.7497+19.1772+13.8869C19.2869+14.0241+19.3418+14.1887+19.3418+14.3807L19.3418+23.9553C19.3418+24.9978+19.0126+25.8757+18.3542+26.6165C17.6683+27.3298+16.8178+27.6863+15.7753+27.6863L11.6328+27.6863C11.2761+27.6863+10.9195+27.6041+10.5628+27.4668C10.2062+27.3298+9.90441+27.1375+9.60264+26.9183C9.30087+26.6988+9.02652+26.4517+8.7796+26.1775C8.53271+25.9032+8.31322+25.6287+8.14864+25.3819L7.68225+24.6686L6.72206+25.7112M16.3789+18.2764C16.4063+18.4685+16.4612+18.633+16.5984+18.7702C16.7081+18.9348+16.8453+19.0171+17.0373+19.0171C17.2293+19.0171+17.394+18.9348+17.5311+18.7976C17.6683+18.6605+17.7232+18.4685+17.7232+18.2764L17.7232+14.6825L16.3789+16.0268L16.3789+18.2764" opacity="1"/>
</svg>
