<?xml version="1.0" encoding="utf-8"?>

<svg version="1.1" id="Layer_3" xmlns="http://www.w3.org/2000/svg" xmlns:xlink="http://www.w3.org/1999/xlink" x="0px" y="0px"
	viewBox="0 0 30 30" style="enable-background:new 0 0 30 30;" xml:space="preserve">
<style type="text/css">
	.st1{fill:#8A9AA7;}
</style>
<title>icon-bbb</title>
	<path class="st1" d="M 7.5664062 6.4003906 C 7.0491285 6.3954598 6.6819905 6.502781 6.1835938 6.8964844 C 5.6851968 7.2901888 5.4435068 8.0729127 5.4492188 8.734375 L 5.5390625 19.003906 C 5.5390625 19.003906 5.0847434 18.357258 4.5117188 17.535156 C 3.938694 16.713057 3.6324343 16.505141 2.9726562 16.431641 C 2.3861869 16.358151 1.8724029 16.578541 1.5058594 17.019531 C 1.0660075 17.460525 0.69959706 18.268313 1.359375 19.738281 C 1.359375 19.738281 2.5218848 21.695878 3.7597656 23.740234 L 4.7070312 22.792969 C 3.541591 20.887282 2.5332031 19.150391 2.5332031 19.150391 C 2.2399686 18.635901 2.2401017 18.195825 2.3867188 18.048828 C 2.4600278 17.975338 2.607289 17.902344 2.7539062 17.902344 C 2.9738321 17.975834 3.1190079 18.1213 3.265625 18.341797 L 5.3183594 21.355469 C 5.427994 21.538665 5.6116129 21.650423 5.8125 21.6875 C 5.8131018 21.687611 5.813851 21.68739 5.8144531 21.6875 L 6.7832031 20.716797 L 6.6972656 8.8085938 C 6.6638384 8.0363917 7.1666338 7.6551642 7.5292969 7.6347656 C 7.89196 7.6143639 8.379014 8.1461989 8.3828125 8.5136719 L 8.4707031 17.09375 C 8.5440131 17.461244 8.8385345 17.755141 9.2050781 17.681641 C 9.4983127 17.681641 9.7900413 17.387743 9.7910156 17.09375 L 9.8085938 11.742188 C 9.8100537 11.301198 10.175385 10.933594 10.615234 10.933594 C 11.055087 11.007094 11.423338 11.301198 11.421875 11.742188 L 11.408203 16.091797 L 12.734375 14.765625 L 12.740234 13.652344 C 12.742734 13.148193 13.191006 12.832031 13.630859 12.832031 C 13.896876 12.832031 14.146735 12.980066 14.3125 13.1875 L 15.310547 12.189453 C 14.865733 11.742145 14.250998 11.447266 13.628906 11.447266 C 13.335673 11.447266 13.180863 11.522195 12.960938 11.595703 C 12.887638 10.419726 11.934656 9.5371094 10.761719 9.5371094 C 10.474431 9.5371094 10.127258 9.6636317 9.8027344 9.9238281 L 9.8027344 8.3183594 C 9.8027344 7.8821854 9.4503173 7.2550797 9.171875 6.96875 C 8.628224 6.4096988 7.9084823 6.403679 7.5664062 6.4003906 z " opacity="1"/>
	<path class="st1" d="M 16.533203 1.0039062 C 14.802362 0.93039309 12.539603 1.9482494 9.3066406 4.2050781 C 8.8177477 4.6098911 8.9312326 5.3598285 9.5195312 5.6191406 C 9.7953341 5.7090156 10.099914 5.6645908 10.335938 5.5019531 C 13.456027 3.3034227 15.631721 2.3724905 16.835938 2.6621094 C 17.545606 2.924148 18.090433 3.4792196 18.316406 4.1699219 C 18.842085 5.2408304 20.072087 5.6874042 21.984375 5.5136719 L 21.986328 5.5136719 L 24.015625 3.4824219 C 23.993495 3.4885609 23.971369 3.4958631 23.949219 3.5019531 C 21.277191 4.207684 20.073304 3.964011 19.851562 3.4980469 C 19.413249 2.3627647 18.453319 1.4794426 17.244141 1.1015625 C 17.017299 1.0468955 16.780466 1.0144081 16.533203 1.0039062 z " opacity="1"/>
	<path class="st1" d="M 1.1496558,27.392951 27.382713,1.1598927 c 0,0 0.482787,-0.48880952 1.214495,0.2428987 0.73171,0.7317109 0.242899,1.2144933 0.242899,1.2144933 L 2.6070478,28.850344 c 0,0 -0.5072149,0.46438 -1.2144934,-0.242899 C 0.68527578,27.900167 1.1496558,27.392951 1.1496558,27.392951 Z" opacity="1"/>
	<path class="st1" d="M 17.976562 14.523438 L 16.941406 15.558594 C 17.227409 15.683816 17.431641 15.970018 17.431641 16.298828 L 17.560547 24.001953 C 17.560547 26.059913 15.949128 27.677734 13.896484 27.677734 L 9.7910156 27.677734 C 8.5227382 27.677734 7.3905322 26.744589 6.6738281 25.826172 L 5.7089844 26.791016 C 6.6563952 27.945084 8.094778 29 9.7910156 29 L 13.896484 29 C 16.682214 29 18.948584 26.720672 18.955078 23.927734 L 18.972656 16.298828 C 18.927184 15.569198 18.541756 14.925315 17.976562 14.523438 z M 15.816406 16.683594 L 14.484375 18.015625 L 14.482422 18.341797 C 14.409122 18.709289 14.701813 19.078125 15.068359 19.078125 C 15.434901 19.151605 15.802734 18.857728 15.802734 18.490234 L 15.802734 18.341797 L 15.816406 16.683594 z " opacity="1"/>
</svg>
