<?xml version="1.0" encoding="utf-8"?>

<svg version="1.1" id="Layer_3" xmlns="http://www.w3.org/2000/svg" xmlns:xlink="http://www.w3.org/1999/xlink" x="0px" y="0px"
	 viewBox="0 0 30 30" style="enable-background:new 0 0 30 30;" xml:space="preserve">
<style type="text/css">
	.st1{fill:#8A9AA7;}
</style>
<title>icon-bbb</title>
<path class="st1" d="M11.6436+6.75682C11.8898+6.78416+12.1087+6.72944+12.3002+6.53793C14.4342+4.2671+16.0211+3.14537+17.1155+3.14537C17.1428+3.14537+17.1975+3.14537+17.2249+3.14537C17.4711+3.20009+17.7447+3.33688+18.0457+3.52838C18.3193+3.74727+18.5108+3.96615+18.6476+4.21238C18.7844+4.4586+18.9485+4.65015+19.1948+4.78693C19.441+4.92372+19.6872+5.00582+19.9882+5.03316C20.1523+5.06054+20.3165+5.08788+20.508+5.08788C21.3835+5.08788+22.4779+4.75955+23.8185+4.10294C24.2836+3.88405+24.8582+3.5831+25.5148+3.20009C26.1441+2.81705+26.6912+2.48872+27.129+2.18777C27.1564+2.16043+27.1837+2.10571+27.2111+2.02361C27.2384+1.94155+27.2384+1.88682+27.2658+1.85948C27.2931+1.66794+27.2658+1.47644+27.1564+1.31227C27.0196+1.14811+26.8554+1.0387+26.6639+1.01132C26.5545+0.983984+26.445+1.01132+26.3082+1.0387C25.8978+1.31227+25.378+1.61322+24.7761+1.96893C24.1742+2.32459+23.6544+2.62554+23.1892+2.84443C22.4232+3.20009+21.7939+3.44632+21.3288+3.52838C20.9731+3.61048+20.6995+3.66521+20.4533+3.66521C20.3712+3.66521+20.2891+3.63783+20.2344+3.63783C20.0156+3.61048+19.8787+3.52838+19.824+3.41894C19.5778+3.00855+19.2221+2.62554+18.757+2.32459C18.2919+2.02361+17.7995+1.80476+17.307+1.72266C17.2522+1.72266+17.1702+1.72266+17.1155+1.72266C16.3767+1.72266+15.556+1.99627+14.6805+2.57082C13.7229+3.20009+12.5738+4.18504+11.2332+5.58033C11.2058+5.60771+11.1785+5.66243+11.1511+5.7445C11.1237+5.8266+11.1237+5.88132+11.0964+5.90866C11.069+6.10016+11.0964+6.29171+11.2058+6.45583C11.2879+6.62+11.4521+6.72944+11.6436+6.75682M14.1606+12.5023C14.1333+12.0919+13.9417+11.7362+13.6135+11.49C13.2851+11.2438+12.9021+11.1069+12.4917+11.0796C12.437+11.1069+12.2728+11.1343+12.0266+11.189C11.7804+11.2711+11.5341+11.4353+11.3426+11.6815L11.3426+10.0399C11.3152+9.46538+11.1785+8.94555+10.9322+8.48044C10.6586+8.04271+10.1388+7.82382+9.37272+7.82382C8.74344+7.82382+8.25099+8.07005+7.86794+8.53516C7.48493+9.02765+7.29339+9.54744+7.29339+10.0947L7.32077+18.9044L6.2811+17.427C6.0896+17.1534+5.87071+16.9072+5.62449+16.6609C5.37826+16.442+5.07728+16.3326+4.72161+16.3326C4.42066+16.3326+4.14709+16.3873+3.90083+16.4694C3.6546+16.5515+3.43572+16.7156+3.24421+16.9072C3.10743+17.0439+2.97061+17.2081+2.88854+17.3996C2.7791+17.5911+2.72438+17.8647+2.72438+18.1657C2.72438+18.6308+2.8612+19.1233+3.10743+19.6431C3.54516+20.3818+3.98293+21.1205+4.42066+21.8592C4.80371+22.4884+5.2141+23.1998+5.67921+23.9659C6.11694+24.7046+6.52733+25.4159+6.93772+26.0452C7.1566+26.4008+7.43021+26.7565+7.7585+27.1122C8.08683+27.4679+8.44249+27.7688+8.85288+28.0698C9.23593+28.3434+9.67366+28.5622+10.1388+28.7538C10.6039+28.9179+11.0964+29+11.6162+29L15.7475+29C16.4588+29+17.1155+28.8632+17.7174+28.617C18.2919+28.3434+18.8117+27.9877+19.2495+27.5226C19.6599+27.0575+20.0156+26.5377+20.2618+25.9357C20.508+25.3065+20.6175+24.6498+20.6175+23.9385L20.6175+14.3901C20.6175+13.8155+20.426+13.2957+20.0703+12.8579C19.7146+12.4202+19.2221+12.2013+18.6476+12.2013C18.0457+12.2013+17.5532+12.4476+17.1702+12.94C17.1428+12.7485+17.006+12.4749+16.7598+12.1466C16.4862+11.8457+16.0758+11.6815+15.5286+11.6815C15.2277+11.6815+14.9814+11.7362+14.7352+11.8457C14.489+11.9824+14.2975+12.2013+14.1606+12.5023M5.02259+18.2751L7.10188+21.312C7.23871+21.5309+7.45755+21.6403+7.7585+21.6403C7.8406+21.6403+7.92266+21.6403+8.00476+21.6129C8.08683+21.5856+8.14155+21.5582+8.19627+21.5309C8.44249+21.3394+8.57932+21.0931+8.57932+20.8469L8.55194+10.1767C8.55194+10.0399+8.57932+9.87577+8.634+9.68427C8.68872+9.5201+8.77082+9.38332+8.85288+9.27388C8.93498+9.19178+9.04443+9.13706+9.15383+9.08233C9.26327+9.02765+9.37272+9.00027+9.45482+9.00027C9.48216+9.00027+9.56422+9.02765+9.67366+9.05499C10.084+9.2465+10.2756+9.5201+10.2756+9.87577L10.2756+17.0166C10.2756+17.2081+10.3577+17.3449+10.5218+17.427C10.6586+17.5364+10.8228+17.5911+11.0143+17.5911C11.1511+17.5911+11.2879+17.5364+11.4247+17.427C11.5615+17.3175+11.6162+17.1807+11.6162+17.0166L11.5888+12.9948C11.5888+12.7759+11.6709+12.5844+11.8351+12.4202C11.9992+12.2834+12.1907+12.2013+12.4096+12.2013C12.6285+12.2287+12.82+12.3108+12.9842+12.4476C13.121+12.5844+13.2031+12.7759+13.2031+12.9948L13.2031+17.7553C13.2031+17.9194+13.2851+18.0562+13.422+18.1657C13.5587+18.2751+13.6955+18.3298+13.8871+18.3298C14.0238+18.3298+14.188+18.2751+14.3248+18.1657C14.4616+18.0562+14.5163+17.9194+14.5163+17.7553L14.571+13.624C14.571+13.3778+14.6805+13.1863+14.8993+13.0221C15.1182+12.8853+15.3371+12.8032+15.5286+12.8032C15.7475+12.8032+15.939+12.8853+16.1305+13.0495C16.2947+13.2136+16.3767+13.4052+16.3767+13.624L16.3494+18.2751C16.3494+18.4666+16.4041+18.6308+16.5409+18.7676C16.6777+18.9317+16.8145+19.0138+17.006+19.0138C17.1975+19.0138+17.3617+18.9317+17.4985+18.7949C17.6353+18.6582+17.69+18.4666+17.69+18.2751L17.69+14.3901C17.69+14.1986+17.7721+14.007+17.9362+13.8429C18.1004+13.6787+18.2919+13.5967+18.5108+13.5967C18.7297+13.5967+18.9212+13.6787+19.0853+13.8429C19.2221+14.007+19.3042+14.1986+19.3042+14.3901L19.3042+23.9385C19.3042+24.9782+18.9759+25.8537+18.3193+26.5924C17.6353+27.3037+16.7871+27.6594+15.7475+27.6594L11.6162+27.6594C11.2606+27.6594+10.9049+27.5773+10.5492+27.4405C10.1935+27.3037+9.89255+27.1122+9.5916+26.8933C9.29065+26.6744+9.01705+26.4282+8.77082+26.1546C8.5246+25.881+8.30571+25.6074+8.14155+25.3612C7.73116+24.7319+7.29339+24.0479+6.82832+23.2819C6.3632+22.5432+5.95282+21.8592+5.56977+21.2299C5.132+20.4912+4.69427+19.7799+4.28388+19.0685C4.09237+18.7676+4.01027+18.5213+4.01027+18.2751C4.01027+17.9742+4.17443+17.81+4.50276+17.81C4.6122+17.81+4.69427+17.8647+4.77633+17.9468C4.85843+18.0562+4.94049+18.1657+5.02259+18.2751" opacity="1"/>
</svg>
